<svg version="1.1" xmlns="http://www.w3.org/2000/svg" xmlns:xlink="http://www.w3.org/1999/xlink" width="40" height="40"><defs/><g><path fill="rgb(245,197,6)" stroke="none" paint-order="stroke fill markers" fill-rule="evenodd" d=" M 1.0368423461914062 11.471797585487366 C 1.0368423461914062 11.471797585487366 9.994361877441406 11.136801183223724 9.994361877441406 11.136801183223724 C 9.994361877441406 11.136801183223724 9.934394836425781 2.3057258129119873 9.934394836425781 2.3057258129119873 C 9.934394836425781 2.3057258129119873 13.759086608886719 5.908950448036194 13.759086608886719 5.908950448036194 C 13.759086608886719 5.908950448036194 13.819320678710938 14.74030351638794 13.819320678710938 14.74030351638794 C 13.819320678710938 14.74030351638794 4.8614959716796875 15.075022220611572 4.8614959716796875 15.075022220611572 C 4.8614959716796875 15.075022220611572 1.0368423461914062 11.471797585487366 1.0368423461914062 11.471797585487366 Z M 6.841514587402344 16.940412521362305 C 6.841514587402344 16.940412521362305 15.799034118652344 16.605416119098663 15.799034118652344 16.605416119098663 C 15.799034118652344 16.605416119098663 15.739067077636719 7.774340748786926 15.739067077636719 7.774340748786926 C 15.739067077636719 7.774340748786926 19.563720703125 11.377565383911133 19.563720703125 11.377565383911133 C 19.563720703125 11.377565383911133 19.623992919921875 20.208825886249542 19.623992919921875 20.208825886249542 C 19.623992919921875 20.208825886249542 10.666168212890625 20.54363715648651 10.666168212890625 20.54363715648651 C 10.666168212890625 20.54363715648651 6.841514587402344 16.940412521362305 6.841514587402344 16.940412521362305 Z M 29.653175354003906 38.43137127161026 C 29.653175354003906 38.43137127161026 29.59290313720703 29.600666165351868 29.59290313720703 29.600666165351868 C 29.59290313720703 29.600666165351868 38.55072784423828 29.26529949903488 38.55072784423828 29.26529949903488 C 38.55072784423828 29.26529949903488 34.72607421875 25.662074863910675 34.72607421875 25.662074863910675 C 34.72607421875 25.662074863910675 25.767906188964844 25.997071266174316 25.767906188964844 25.997071266174316 C 25.767906188964844 25.997071266174316 25.82848358154297 34.82814663648605 25.82848358154297 34.82814663648605 C 25.82848358154297 34.82814663648605 29.653175354003906 38.43137127161026 29.653175354003906 38.43137127161026 Z M 23.848464965820312 32.96275633573532 C 23.848464965820312 32.96275633573532 23.788230895996094 24.13205122947693 23.788230895996094 24.13205122947693 C 23.788230895996094 24.13205122947693 32.746055603027344 23.796684563159943 32.746055603027344 23.796684563159943 C 32.746055603027344 23.796684563159943 28.921401977539062 20.193459928035736 28.921401977539062 20.193459928035736 C 28.921401977539062 20.193459928035736 19.963272094726562 20.528548896312714 19.963272094726562 20.528548896312714 C 19.963272094726562 20.528548896312714 20.023849487304688 29.359531700611115 20.023849487304688 29.359531700611115 C 20.023849487304688 29.359531700611115 23.848464965820312 32.96275633573532 23.848464965820312 32.96275633573532 Z M 28.824546813964844 1.8900118470191956 C 28.824546813964844 1.8900118470191956 29.164627075195312 10.7146075963974 29.164627075195312 10.7146075963974 C 29.164627075195312 10.7146075963974 38.12870788574219 10.655550479888916 38.12870788574219 10.655550479888916 C 38.12870788574219 10.655550479888916 34.471214294433594 14.42345005273819 34.471214294433594 14.42345005273819 C 34.471214294433594 14.42345005273819 25.50682830810547 14.482784867286682 25.50682830810547 14.482784867286682 C 25.50682830810547 14.482784867286682 25.167015075683594 5.657911419868469 25.167015075683594 5.657911419868469 C 25.167015075683594 5.657911419868469 28.824546813964844 1.8900118470191956 28.824546813964844 1.8900118470191956 Z M 23.27355194091797 7.608462452888489 C 23.27355194091797 7.608462452888489 23.613670349121094 16.43315076828003 23.613670349121094 16.43315076828003 C 23.613670349121094 16.43315076828003 32.57775115966797 16.37400108575821 32.57775115966797 16.37400108575821 C 32.57775115966797 16.37400108575821 28.92021942138672 20.141900658607483 28.92021942138672 20.141900658607483 C 28.92021942138672 20.141900658607483 19.955833435058594 20.201235473155975 19.955833435058594 20.201235473155975 C 19.955833435058594 20.201235473155975 19.616058349609375 11.376362025737762 19.616058349609375 11.376362025737762 C 19.616058349609375 11.376362025737762 23.27355194091797 7.608462452888489 23.27355194091797 7.608462452888489 Z M 1.4588623046875 30.08154660463333 C 1.4588623046875 30.08154660463333 10.422599792480469 30.02221179008484 10.422599792480469 30.02221179008484 C 10.422599792480469 30.02221179008484 10.763023376464844 38.84708523750305 10.763023376464844 38.84708523750305 C 10.763023376464844 38.84708523750305 14.420555114746094 35.07918566465378 14.420555114746094 35.07918566465378 C 14.420555114746094 35.07918566465378 14.080398559570312 26.254034519195557 14.080398559570312 26.254034519195557 C 14.080398559570312 26.254034519195557 5.1163177490234375 26.313647031784058 5.1163177490234375 26.313647031784058 C 5.1163177490234375 26.313647031784058 1.4588623046875 30.08154660463333 1.4588623046875 30.08154660463333 Z M 7.009819030761719 24.363095998764038 C 7.009819030761719 24.363095998764038 15.973556518554688 24.30366861820221 15.973556518554688 24.30366861820221 C 15.973556518554688 24.30366861820221 16.313980102539062 33.12863463163376 16.313980102539062 33.12863463163376 C 16.313980102539062 33.12863463163376 19.971511840820312 29.360735058784485 19.971511840820312 29.360735058784485 C 19.971511840820312 29.360735058784485 19.631393432617188 20.535583913326263 19.631393432617188 20.535583913326263 C 19.631393432617188 20.535583913326263 10.667312622070312 20.595196425914764 10.667312622070312 20.595196425914764 C 10.667312622070312 20.595196425914764 7.009819030761719 24.363095998764038 7.009819030761719 24.363095998764038 Z"/></g></svg>