<svg version="1.1" xmlns="http://www.w3.org/2000/svg" xmlns:xlink="http://www.w3.org/1999/xlink" width="43" height="43"><defs/><g><path fill="rgb(245,197,6)" stroke="none" paint-order="stroke fill markers" fill-rule="evenodd" d=" M 1.9961929321289062 27.841180741786957 C 1.9961929321289062 27.841180741786957 8.234977722167969 21.499945998191833 8.234977722167969 21.499945998191833 C 8.234977722167969 21.499945998191833 1.9961929321289062 15.158433556556702 1.9961929321289062 15.158433556556702 C 1.9961929321289062 15.158433556556702 7.2882080078125 15.158433556556702 7.2882080078125 15.158433556556702 C 7.2882080078125 15.158433556556702 13.527412414550781 21.499945998191833 13.527412414550781 21.499945998191833 C 13.527412414550781 21.499945998191833 7.2882080078125 27.841180741786957 7.2882080078125 27.841180741786957 C 7.2882080078125 27.841180741786957 1.9961929321289062 27.841180741786957 1.9961929321289062 27.841180741786957 Z M 10.027847290039062 27.841180741786957 C 10.027847290039062 27.841180741786957 16.26659393310547 21.499945998191833 16.26659393310547 21.499945998191833 C 16.26659393310547 21.499945998191833 10.027847290039062 15.158433556556702 10.027847290039062 15.158433556556702 C 10.027847290039062 15.158433556556702 15.319862365722656 15.158433556556702 15.319862365722656 15.158433556556702 C 15.319862365722656 15.158433556556702 21.559066772460938 21.499945998191833 21.559066772460938 21.499945998191833 C 21.559066772460938 21.499945998191833 15.319862365722656 27.841180741786957 15.319862365722656 27.841180741786957 C 15.319862365722656 27.841180741786957 10.027847290039062 27.841180741786957 10.027847290039062 27.841180741786957 Z M 41.591339111328125 27.841180741786957 C 41.591339111328125 27.841180741786957 35.35259246826172 21.499945998191833 35.35259246826172 21.499945998191833 C 35.35259246826172 21.499945998191833 41.591339111328125 15.158433556556702 41.591339111328125 15.158433556556702 C 41.591339111328125 15.158433556556702 36.29932403564453 15.158433556556702 36.29932403564453 15.158433556556702 C 36.29932403564453 15.158433556556702 30.060157775878906 21.499945998191833 30.060157775878906 21.499945998191833 C 30.060157775878906 21.499945998191833 36.29932403564453 27.841180741786957 36.29932403564453 27.841180741786957 C 36.29932403564453 27.841180741786957 41.591339111328125 27.841180741786957 41.591339111328125 27.841180741786957 Z M 33.559722900390625 27.841180741786957 C 33.559722900390625 27.841180741786957 27.320938110351562 21.499945998191833 27.320938110351562 21.499945998191833 C 27.320938110351562 21.499945998191833 33.559722900390625 15.158433556556702 33.559722900390625 15.158433556556702 C 33.559722900390625 15.158433556556702 28.26770782470703 15.158433556556702 28.26770782470703 15.158433556556702 C 28.26770782470703 15.158433556556702 22.02850341796875 21.499945998191833 22.02850341796875 21.499945998191833 C 22.02850341796875 21.499945998191833 28.26770782470703 27.841180741786957 28.26770782470703 27.841180741786957 C 28.26770782470703 27.841180741786957 33.559722900390625 27.841180741786957 33.559722900390625 27.841180741786957 Z M 15.356903076171875 1.9961018562316895 C 15.356903076171875 1.9961018562316895 21.793556213378906 8.142207443714142 21.793556213378906 8.142207443714142 C 21.793556213378906 8.142207443714142 28.230667114257812 1.9961018562316895 28.230667114257812 1.9961018562316895 C 28.230667114257812 1.9961018562316895 28.230667114257812 7.209512293338776 28.230667114257812 7.209512293338776 C 28.230667114257812 7.209512293338776 21.793556213378906 13.356080710887909 21.793556213378906 13.356080710887909 C 21.793556213378906 13.356080710887909 15.356903076171875 7.209512293338776 15.356903076171875 7.209512293338776 C 15.356903076171875 7.209512293338776 15.356903076171875 1.9961018562316895 15.356903076171875 1.9961018562316895 Z M 15.356903076171875 9.90855211019516 C 15.356903076171875 9.90855211019516 21.793556213378906 16.05475026369095 21.793556213378906 16.05475026369095 C 21.793556213378906 16.05475026369095 28.230667114257812 9.90855211019516 28.230667114257812 9.90855211019516 C 28.230667114257812 9.90855211019516 28.230667114257812 15.121962547302246 28.230667114257812 15.121962547302246 C 28.230667114257812 15.121962547302246 21.793556213378906 21.268623530864716 21.793556213378906 21.268623530864716 C 21.793556213378906 21.268623530864716 15.356903076171875 15.121962547302246 15.356903076171875 15.121962547302246 C 15.356903076171875 15.121962547302246 15.356903076171875 9.90855211019516 15.356903076171875 9.90855211019516 Z M 15.356903076171875 41.00351244211197 C 15.356903076171875 41.00351244211197 21.793556213378906 34.85740685462952 21.793556213378906 34.85740685462952 C 21.793556213378906 34.85740685462952 28.230667114257812 41.00351244211197 28.230667114257812 41.00351244211197 C 28.230667114257812 41.00351244211197 28.230667114257812 35.79010200500488 28.230667114257812 35.79010200500488 C 28.230667114257812 35.79010200500488 21.793556213378906 29.643441021442413 21.793556213378906 29.643441021442413 C 21.793556213378906 29.643441021442413 15.356903076171875 35.79010200500488 15.356903076171875 35.79010200500488 C 15.356903076171875 35.79010200500488 15.356903076171875 41.00351244211197 15.356903076171875 41.00351244211197 Z M 15.356903076171875 33.0910621881485 C 15.356903076171875 33.0910621881485 21.793556213378906 26.944956600666046 21.793556213378906 26.944956600666046 C 21.793556213378906 26.944956600666046 28.230667114257812 33.0910621881485 28.230667114257812 33.0910621881485 C 28.230667114257812 33.0910621881485 28.230667114257812 27.877651751041412 28.230667114257812 27.877651751041412 C 28.230667114257812 27.877651751041412 21.793556213378906 21.730990767478943 21.793556213378906 21.730990767478943 C 21.793556213378906 21.730990767478943 15.356903076171875 27.877651751041412 15.356903076171875 27.877651751041412 C 15.356903076171875 27.877651751041412 15.356903076171875 33.0910621881485 15.356903076171875 33.0910621881485 Z"/></g></svg>