<svg version="1.1" xmlns="http://www.w3.org/2000/svg" xmlns:xlink="http://www.w3.org/1999/xlink" width="166" height="159"><defs/><g><path fill="rgb(188,125,0)" stroke="none" paint-order="stroke fill markers" fill-rule="evenodd" d=" M 164.52157592773438 17.312459468841553 C 164.52157592773438 17.312459468841553 149.70479583740234 32.62546992301941 149.70479583740234 32.62546992301941 C 149.70479583740234 32.62546992301941 149.70479583740234 31.237905383110046 149.70479583740234 35.17825543880463 C 149.70479583740234 37.976618587970734 149.2689666748047 40.65011018514633 148.63771057128906 43.24649429321289 C 148.29263305664062 64.31257504224777 141.79967498779297 92.24779450893402 115.1323471069336 114.29720401763916 C 62.67579650878906 157.66826903820038 6.476188659667969 119.40166425704956 6.476188659667969 119.40166425704956 C 50.92637634277344 119.40166425704956 50.92637634277344 104.08800584077835 50.92637634277344 104.08800584077835 C 41.048561096191406 104.08800584077835 21.29296875 83.6708128452301 21.29296875 83.6708128452301 C 26.231781005859375 88.77462512254715 36.109825134277344 83.6708128452301 36.109825134277344 83.6708128452301 C 11.414772033691406 68.35678416490555 11.414772033691406 53.04377371072769 11.414772033691406 53.04377371072769 C 16.353927612304688 58.14786368608475 26.231781005859375 53.04377371072769 26.231781005859375 53.04377371072769 C 1.5371475219726562 32.62546992301941 16.353927612304688 7.103076159954071 16.353927612304688 7.103076159954071 C 21.29296875 32.62546992301941 85.49893951416016 42.834482967853546 85.49893951416016 42.834482967853546 C 85.49893951416016 42.834482967853546 86.31570434570312 42.41228938102722 86.31570434570312 42.41228938102722 C 85.81185913085938 40.07777452468872 85.49893951416016 35.11762470006943 85.49893951416016 32.62546992301941 C 85.49893951416016 14.301749885082245 99.87157440185547 1.9989861845970154 117.60167694091797 1.9989861845970154 C 127.36043548583984 1.9989861845970154 135.9956512451172 6.595166444778442 141.8829116821289 13.697849214076996 C 141.8829116821289 13.697849214076996 144.76598358154297 12.208091795444489 144.76598358154297 12.208091795444489 C 144.76598358154297 12.208091795444489 159.582763671875 1.9989861845970154 159.582763671875 1.9989861845970154 C 159.582763671875 1.9989861845970154 149.70479583740234 22.416827142238617 149.70479583740234 22.416827142238617 C 149.70479583740234 22.416827142238617 164.52157592773438 17.312459468841553 164.52157592773438 17.312459468841553 Z"/></g></svg>