<svg version="1.1" xmlns="http://www.w3.org/2000/svg" xmlns:xlink="http://www.w3.org/1999/xlink" width="12" height="12"><defs/><g><path fill="rgb(255,255,255)" stroke="none" paint-order="stroke fill markers" fill-rule="evenodd" d=" M 10.724296569824219 7.32519793510437 C 10.724296569824219 7.32519793510437 7.216911315917969 7.32519793510437 7.216911315917969 7.32519793510437 C 7.216911315917969 7.32519793510437 7.216911315917969 10.831228256225586 7.216911315917969 10.831228256225586 C 7.216911315917969 10.831228256225586 4.586448669433594 10.831228256225586 4.586448669433594 10.831228256225586 C 4.586448669433594 10.831228256225586 4.586448669433594 7.32519793510437 4.586448669433594 7.32519793510437 C 4.586448669433594 7.32519793510437 1.0791397094726562 7.32519793510437 1.0791397094726562 7.32519793510437 C 1.0791397094726562 7.32519793510437 1.0791397094726562 4.695675194263458 1.0791397094726562 4.695675194263458 C 1.0791397094726562 4.695675194263458 4.586448669433594 4.695675194263458 4.586448669433594 4.695675194263458 C 4.586448669433594 4.695675194263458 4.586448669433594 1.1896448731422424 4.586448669433594 1.1896448731422424 C 4.586448669433594 1.1896448731422424 7.216911315917969 1.1896448731422424 7.216911315917969 1.1896448731422424 C 7.216911315917969 1.1896448731422424 7.216911315917969 4.695675194263458 7.216911315917969 4.695675194263458 C 7.216911315917969 4.695675194263458 10.724296569824219 4.695675194263458 10.724296569824219 4.695675194263458 C 10.724296569824219 4.695675194263458 10.724296569824219 7.32519793510437 10.724296569824219 7.32519793510437 Z"/></g></svg>